<?xml version="1.0" encoding="UTF-8" standalone="no"?>
<!-- Created with Inkscape (http://www.inkscape.org/) -->

<svg
   xmlns:dc="http://purl.org/dc/elements/1.1/"
   xmlns:cc="http://creativecommons.org/ns#"
   xmlns:rdf="http://www.w3.org/1999/02/22-rdf-syntax-ns#"
   xmlns:svg="http://www.w3.org/2000/svg"
   xmlns="http://www.w3.org/2000/svg"
   xmlns:sodipodi="http://sodipodi.sourceforge.net/DTD/sodipodi-0.dtd"
   xmlns:inkscape="http://www.inkscape.org/namespaces/inkscape"
   width="1600px"
   height="1200px"
   id="svg3082"
   version="1.1"
   inkscape:version="0.48.3.1 r9886"
   sodipodi:docname="UbuntuDesktop-white.svg">
  <defs
     id="defs3084" />
  <sodipodi:namedview
     id="base"
     pagecolor="#ffffff"
     bordercolor="#666666"
     borderopacity="1.0"
     inkscape:pageopacity="0.0"
     inkscape:pageshadow="2"
     inkscape:zoom="0.51127135"
     inkscape:cx="1078.7751"
     inkscape:cy="866.85789"
     inkscape:current-layer="layer1"
     inkscape:document-units="px"
     showgrid="false"
     inkscape:window-width="1301"
     inkscape:window-height="744"
     inkscape:window-x="1505"
     inkscape:window-y="146"
     inkscape:window-maximized="1" />
  <metadata
     id="metadata3087">
    <rdf:RDF>
      <cc:Work
         rdf:about="">
        <dc:format>image/svg+xml</dc:format>
        <dc:type
           rdf:resource="http://purl.org/dc/dcmitype/StillImage" />
        <dc:title></dc:title>
      </cc:Work>
    </rdf:RDF>
  </metadata>
  <g
     id="layer1"
     inkscape:label="Layer 1"
     inkscape:groupmode="layer">
    <path
       transform="matrix(1.0259259,0,0,1.0259259,-18.686356,-9.665486)"
       style="fill:#666666;fill-opacity:1;fill-rule:nonzero;stroke:none"
       d="m 987.48784,595.61316 c 0,103.11702 -83.59286,186.70988 -186.70989,186.70988 -103.11702,0 -186.70988,-83.59286 -186.70988,-186.70988 0,-103.11702 83.59286,-186.70989 186.70988,-186.70989 103.11703,0 186.70989,83.59287 186.70989,186.70989 z"
       id="path3220" />
    <path
       sodipodi:type="arc"
       style="fill:#000000;fill-opacity:1;fill-rule:nonzero;stroke:none"
       id="path3198"
       sodipodi:cx="820.14044"
       sodipodi:cy="596.99622"
       sodipodi:rx="190.85899"
       sodipodi:ry="190.85899"
       d="m 1010.9994,596.99622 a 190.85899,190.85899 0 1 1 -381.71795,0 190.85899,190.85899 0 1 1 381.71795,0 z"
       transform="translate(-18,4)" />
    <path
       sodipodi:type="arc"
       style="fill:#000000;fill-opacity:1;fill-rule:nonzero;stroke:none"
       id="path3106"
       sodipodi:cx="841.57751"
       sodipodi:cy="666.83954"
       sodipodi:rx="170.80498"
       sodipodi:ry="170.80498"
       d="m 1012.3825,666.83954 a 170.80498,170.80498 0 1 1 -341.60996,0 170.80498,170.80498 0 1 1 341.60996,0 z"
       transform="translate(-41.491086,-69.15181)" />
    <path
       inkscape:connector-curvature="0"
       style="fill:#ffffff"
       d="M 3.3333367,0 1603.3334,0 l 0,1200 -1600.0000633,0 z"
       id="rect3141" />
    <path
       sodipodi:type="arc"
       style="fill:#000000;fill-opacity:1;fill-rule:nonzero;stroke:none"
       id="path3230"
       sodipodi:cx="314.90128"
       sodipodi:cy="673.8606"
       sodipodi:rx="180.92154"
       sodipodi:ry="180.92154"
       d="m 495.82281,673.8606 a 180.92154,180.92154 0 1 1 -361.84307,0 180.92154,180.92154 0 1 1 361.84307,0 z"
       transform="matrix(1.0540541,0,0,1.0540541,471.95545,-108.79351)" />
    <rect
       style="fill:#00ff00"
       id="rect3753"
       width="53.755047"
       height="154.9407"
       x="776.4577"
       y="200"
       ry="26.877472" />
    <rect
       ry="26.877472"
       y="845.05933"
       x="776.4577"
       height="154.9407"
       width="53.755047"
       id="rect3755"
       style="fill:#00ff00" />
    <rect
       style="fill:#00ff00"
       id="rect3757"
       width="53.754944"
       height="154.94101"
       x="566.49493"
       y="-1207.1772"
       ry="26.877523"
       transform="matrix(-0.00643684,0.99997928,-0.99997928,-0.00643681,0,0)"
       inkscape:transform-center-x="7.9051319"
       inkscape:transform-center-y="29.249014" />
    <rect
       inkscape:transform-center-y="29.248994"
       inkscape:transform-center-x="7.9051547"
       transform="matrix(-0.00643684,0.99997928,-0.99997928,-0.00643681,0,0)"
       ry="26.877523"
       y="-562.12952"
       x="570.64856"
       height="154.94101"
       width="53.754944"
       id="rect3759"
       style="fill:#00ff00" />
    <rect
       style="fill:#00ff00"
       id="rect3761"
       width="53.75499"
       height="154.94086"
       x="-163.28008"
       y="-748.44366"
       ry="26.877497"
       transform="matrix(-0.69219113,0.72171423,-0.72171556,-0.69218976,0,0)"
       inkscape:transform-center-x="25.849993"
       inkscape:transform-center-y="15.804309" />
    <rect
       inkscape:transform-center-y="15.804309"
       inkscape:transform-center-x="25.849991"
       transform="matrix(-0.69219113,0.72171423,-0.72171556,-0.69218976,0,0)"
       ry="26.877497"
       y="-1401.048"
       x="-142.94354"
       height="154.94086"
       width="53.75499"
       id="rect3763"
       style="fill:#00ff00" />
    <rect
       style="fill:#00ff00"
       id="rect3765"
       width="53.754997"
       height="154.94086"
       x="967.71735"
       y="-535.84924"
       ry="26.877495"
       transform="matrix(0.72171556,0.69218976,-0.69219113,0.72171423,0,0)"
       inkscape:transform-center-x="-15.804296"
       inkscape:transform-center-y="25.849921" />
    <rect
       inkscape:transform-center-y="25.849931"
       inkscape:transform-center-x="-15.804316"
       transform="matrix(0.72171556,0.69218976,-0.69219113,0.72171423,0,0)"
       ry="26.877495"
       y="134.0575"
       x="972.73816"
       height="154.94086"
       width="53.754997"
       id="rect3767"
       style="fill:#00ff00" />
    <g
       id="g3200"
       style="fill:#00ff00"
       transform="translate(-1.052889,0.68354332)">
      <path
         inkscape:connector-curvature="0"
         id="path3174"
         d="m 727.33497,674.42357 c -9.56907,-9.84625 -13.62795,-15.33268 -18.73475,-25.32402 -3.58555,-7.01503 -6.50754,-14.42849 -6.49331,-16.47435 0.0142,-2.04586 2.19251,-7.99565 4.84062,-13.22175 4.16262,-8.215 4.81385,-10.83757 4.80801,-19.36251 -0.006,-8.54037 -0.65391,-11.12157 -4.84063,-19.27994 -2.65863,-5.18069 -4.83387,-10.88918 -4.83387,-12.68552 0,-6.97227 11.43794,-25.97158 22.769,-37.82108 12.71653,-13.29836 15.44425,-15.17443 18.13463,-12.47261 2.70385,2.71534 14.41782,23.6108 14.41782,25.71859 0,0.98626 -2.41348,4.42434 -5.36328,7.64019 -12.9062,14.07025 -19.62627,30.32573 -19.85558,48.02961 -0.24587,18.98143 5.66163,35.29892 18.47839,51.04038 l 7.21204,8.85778 -4.73065,8.88348 c -2.60186,4.88592 -6.72466,11.16896 -9.16176,13.96232 l -4.4311,5.07884 -12.21558,-12.56941 z"
         style="fill:#00ff00;fill-opacity:1;fill-rule:nonzero;stroke:none" />
      <path
         inkscape:connector-curvature="0"
         id="path3176"
         d="m 667.01608,622.74454 c -7.3934,-3.78428 -8.98517,-5.29928 -12.2106,-11.62164 -2.11764,-4.15092 -2.66678,-7.32257 -2.21372,-12.78584 1.43577,-17.31349 19.17745,-26.77977 34.4258,-18.3683 15.87528,8.7573 16.30834,31.47167 0.77359,40.57564 -8.45699,4.95613 -14.202,5.56454 -20.77507,2.20014 z"
         style="fill:#00ff00;fill-opacity:1;fill-rule:nonzero;stroke:none" />
      <path
         inkscape:connector-curvature="0"
         id="path3178"
         d="m 881.70715,591.32192 c -4.36597,-0.5193 -5.32101,-1.34125 -7.43718,-6.40079 -11.67536,-27.91454 -24.84195,-42.7534 -45.13793,-50.87083 -6.62867,-2.65116 -9.95989,-2.95591 -31.29305,-2.86283 l -23.87467,0.10416 -3.25159,-5.15086 c -5.8127,-9.20791 -10.74865,-19.87236 -10.04566,-21.70432 0.37785,-0.98465 7.73306,-3.47999 16.34492,-5.54518 13.41235,-3.2164 17.74056,-3.6644 30.1798,-3.12387 18.13905,0.78822 23.66315,2.91039 26.63832,10.23352 2.68207,6.60167 12.42668,16.24943 19.30321,19.11136 3.2531,1.35389 9.41325,2.14002 16.76945,2.14002 l 11.6275,0 6.93759,10.03558 c 3.81567,5.51956 8.84418,13.78752 11.17448,18.37323 5.00245,9.84418 10.95963,31.95785 9.09108,33.74703 -1.5174,1.45294 -19.93556,2.75716 -27.02627,1.91378 z"
         style="fill:#00ff00;fill-opacity:1;fill-rule:nonzero;stroke:none" />
      <path
         inkscape:connector-curvature="0"
         id="path3180"
         d="m 861.18073,513.22413 c -10.94474,-3.2384 -16.90412,-10.87491 -17.07005,-21.87402 -0.29093,-19.2852 21.62245,-31.47978 35.90789,-19.9824 8.81854,7.09744 11.88319,12.64666 11.17645,20.2374 -1.44753,15.54711 -15.74073,25.84237 -30.01429,21.61902 z"
         style="fill:#00ff00;fill-opacity:1;fill-rule:nonzero;stroke:none" />
      <path
         inkscape:connector-curvature="0"
         id="path3192"
         d="m 776.07347,703.0638 c -10.59201,-3.06738 -14.52188,-5.2346 -14.52188,-8.00846 0,-1.21719 2.94,-7.71521 6.53333,-14.44004 l 6.53332,-12.22697 5.56824,1.00411 c 3.06254,0.55225 14.29661,1.0041 24.96461,1.0041 19.17756,0 19.50164,-0.0518 28.72955,-4.59706 19.88654,-9.79512 33.97667,-27.4388 39.6798,-49.68711 l 1.50674,-5.8779 16.58653,0 c 19.59041,0 19.44448,-0.12983 15.9976,14.23215 -3.00277,12.51155 -11.21045,29.7977 -19.34553,40.74354 -5.84626,7.86619 -6.88105,8.64397 -11.50027,8.64397 -8.23253,0 -22.8976,2.92812 -28.29442,5.64944 -5.62908,2.83844 -10.56358,8.22472 -15.94084,17.40033 -2.00183,3.41586 -5.14842,6.78428 -6.99242,7.48536 -5.97334,2.27107 -40.25464,1.35319 -49.50436,-1.32546 z"
         style="fill:#00ff00;fill-opacity:1;fill-rule:nonzero;stroke:none" />
      <path
         inkscape:connector-curvature="0"
         id="path3194"
         d="m 852.21075,729.84518 c -7.30914,-7.30914 -9.46279,-12.39044 -8.77365,-20.7005 1.56308,-18.84873 23.75496,-28.0278 37.84735,-15.65452 6.33199,5.55957 8.88951,10.67316 8.88951,17.77401 0,7.32255 -3.19057,14.01718 -9.19145,19.28603 -4.28935,3.7661 -5.63777,4.15753 -14.32219,4.15753 -9.12078,0 -9.8235,-0.23648 -14.44957,-4.86255 z"
         style="fill:#00ff00;fill-opacity:1;fill-rule:nonzero;stroke:none" />
    </g>
  </g>
</svg>
