<?xml version="1.0" encoding="UTF-8" standalone="no"?>
<!-- Created with Inkscape (http://www.inkscape.org/) -->

<svg
   xmlns:dc="http://purl.org/dc/elements/1.1/"
   xmlns:cc="http://creativecommons.org/ns#"
   xmlns:rdf="http://www.w3.org/1999/02/22-rdf-syntax-ns#"
   xmlns:svg="http://www.w3.org/2000/svg"
   xmlns="http://www.w3.org/2000/svg"
   xmlns:sodipodi="http://sodipodi.sourceforge.net/DTD/sodipodi-0.dtd"
   xmlns:inkscape="http://www.inkscape.org/namespaces/inkscape"
   width="744.09448819"
   height="1052.3622047"
   id="svg2"
   version="1.1"
   inkscape:version="0.48.4 r9939"
   sodipodi:docname="wheel-socket.svg.2014_05_19_19_55_26.0.svg">
  <defs
     id="defs4" />
  <sodipodi:namedview
     id="base"
     pagecolor="#ffffff"
     bordercolor="#666666"
     borderopacity="1.0"
     inkscape:pageopacity="0.0"
     inkscape:pageshadow="2"
     inkscape:zoom="4.7713898"
     inkscape:cx="88.270296"
     inkscape:cy="43.501371"
     inkscape:document-units="px"
     inkscape:current-layer="layer1"
     showgrid="false"
     inkscape:window-width="1375"
     inkscape:window-height="876"
     inkscape:window-x="65"
     inkscape:window-y="24"
     inkscape:window-maximized="1" />
  <metadata
     id="metadata7">
    <rdf:RDF>
      <cc:Work
         rdf:about="">
        <dc:format>image/svg+xml</dc:format>
        <dc:type
           rdf:resource="http://purl.org/dc/dcmitype/StillImage" />
        <dc:title></dc:title>
      </cc:Work>
    </rdf:RDF>
  </metadata>
  <g
     inkscape:label="Layer 1"
     inkscape:groupmode="layer"
     id="layer1">
    <path
       style="font-size:medium;font-style:normal;font-variant:normal;font-weight:normal;font-stretch:normal;text-indent:0;text-align:start;text-decoration:none;line-height:normal;letter-spacing:normal;word-spacing:normal;text-transform:none;direction:ltr;block-progression:tb;writing-mode:lr-tb;text-anchor:start;baseline-shift:baseline;color:#000000;fill:#000000;fill-opacity:1;stroke:none;stroke-width:0.10231563;marker:none;visibility:visible;display:inline;overflow:visible;enable-background:accumulate;font-family:Sans;-inkscape-font-specification:Sans"
       d="m 43.53125,965.20643 0,5.28125 c 0.04191,0 0.08312,-1.3e-4 0.125,0 l 0,-5.28125 -0.125,0 z m -21.6875,5.8125 -0.09375,0.0625 2.625,4.53125 c 0.02821,-0.0163 0.0655,-0.015 0.09375,-0.0312 l -2.625,-4.5625 z m 43.5,0 -2.65625,4.59375 c 0.03221,0.0186 0.0616,0.0438 0.09375,0.0625 l 2.65625,-4.59375 -0.09375,-0.0625 z m -59.46875,15.9375 -0.0625,0.0937 4.5625,2.625 c 0.01874,-0.0325 0.04366,-0.0613 0.0625,-0.0937 l -4.5625,-2.625 z m 75.4375,0 -4.625,2.6875 c 0.01878,0.0325 0.04381,0.0612 0.0625,0.0937 l 4.625,-2.6875 -0.0625,-0.0937 z M 0,1008.7377 l 0,0.094 5.25,0 c -3.37e-5,-0.021 0,-0.042 0,-0.062 0,-0.01 -8.4e-6,-0.021 0,-0.031 l -5.25,0 z m 81.84375,0 c 8e-6,0.01 0,0.021 0,0.031 0,0.021 3.4e-5,0.042 0,0.062 l 5.34375,0 0,-0.094 -5.34375,0 z m -5.125,19.125 c -0.01589,0.028 -0.01529,0.066 -0.03125,0.094 l 4.625,2.6563 0.0625,-0.062 -4.65625,-2.6875 z m -66.34375,0.031 -4.5625,2.6562 0.0625,0.062 4.5625,-2.625 c -0.01857,-0.032 -0.04402,-0.062 -0.0625,-0.094 z m 52.40625,14 c -0.02749,0.016 -0.06622,0.015 -0.09375,0.031 l 2.65625,4.625 0.09375,-0.031 -2.65625,-4.625 z m -38.40625,0.031 -2.625,4.5938 0.09375,0.031 2.625,-4.5625 c -0.03251,-0.019 -0.0613,-0.044 -0.09375,-0.062 z m 19.15625,5.125 0,5.3125 0.125,0 0,-5.3125 c -0.04191,10e-5 -0.08306,0 -0.125,0 z"
       id="path3027"
       inkscape:connector-curvature="0" />
    <path
       sodipodi:type="arc"
       style="fill:none;stroke:#000000;stroke-width:0.01850814;stroke-opacity:1"
       id="path3903"
       sodipodi:cx="48.365097"
       sodipodi:cy="1016.7756"
       sodipodi:rx="7.0578871"
       sodipodi:ry="7.0578871"
       d="m 55.422984,1016.7756 a 7.0578871,7.0578871 0 1 1 -14.115774,0 7.0578871,7.0578871 0 1 1 14.115774,0 z"
       transform="matrix(5.4106012,0,0,5.4106062,-218.09946,-4492.6385)" />
    <path
       sodipodi:type="arc"
       style="fill:none;stroke:#000000;stroke-width:0.00681938;stroke-miterlimit:4;stroke-opacity:1;stroke-dasharray:none"
       id="path3905"
       sodipodi:cx="29.131973"
       sodipodi:cy="954.27753"
       sodipodi:rx="3.143738"
       sodipodi:ry="2.7245731"
       d="m 32.275711,954.27753 a 3.143738,2.7245731 0 1 1 -6.287476,0 3.143738,2.7245731 0 1 1 6.287476,0 z"
       transform="matrix(13.864679,0,0,15.997561,-360.25604,-14257.4)" />
    <path
       style="fill:none;stroke:#000000;stroke-width:0.1;stroke-miterlimit:4;stroke-opacity:1;stroke-dasharray:none"
       d="M 42.9375 996.21875 C 40.16567 996.36268 37.633602 997.40485 35.625 999.0625 L 35.625 1018.4062 C 37.633602 1020.0639 40.16567 1021.1061 42.9375 1021.25 L 44.25 1021.25 C 47.085037 1021.1028 49.657738 1020.0052 51.6875 1018.2812 L 51.6875 999.1875 C 49.657738 997.46359 47.085037 996.36596 44.25 996.21875 L 42.9375 996.21875 z "
       id="path3056" />
  </g>
</svg>
